Coordinates
version=1
nRows=29
nColumns=22
inDegrees=yes

Units are S.I. units (second, meters, Newtons, ...)
If the header above contains a line with 'inDegrees', this indicates whether rotational values are in degrees (yes) or radians (no).

endheader
time	pelvis_tilt	pelvis_list	pelvis_rotation	pelvis_tx	pelvis_ty	pelvis_tz	hip_flexion_r	hip_adduction_r	hip_rotation_r	knee_angle_r	ankle_angle_r	subtalar_angle_r	hip_flexion_l	hip_adduction_l	hip_rotation_l	knee_angle_l	ankle_angle_l	subtalar_angle_l	lumbar_extension	lumbar_bending	lumbar_rotation
      6.19000000	      3.33447474	     -1.68515465	    -88.30411796	      1.10024179	      0.97685582	      0.41784874	     25.63355816	    -10.15997504	    -37.94129976	    -19.36252598	      4.32887055	     -3.12917631	    -19.72120595	     -3.81739954	    -12.80919493	    -16.56111479	      5.60808759	     16.79152585	     -4.57467586	     -1.35777743	     -9.63863696
      6.20000000	      3.01406592	     -1.51830197	    -88.57587848	      1.09487504	      0.97827235	      0.43043083	     25.39580095	     -9.76326861	    -38.41703163	    -20.08699949	      3.49112655	     -3.08960238	    -19.49773144	     -4.53443536	    -12.69358437	    -17.71071364	      3.63634058	     17.63008384	     -4.02304798	     -0.96841634	     -9.62562172
      6.21000000	      2.73299966	     -1.26340437	    -89.06185891	      1.08902202	      0.97969108	      0.44259069	     25.37594483	     -9.20192995	    -38.03525506	    -20.81217618	      3.14556257	     -3.71724277	    -19.03149953	     -5.17450344	    -12.74364660	    -19.08221965	      1.60713510	     18.43344998	     -3.42673387	     -0.64265657	     -9.42059447
      6.22000000	      2.40556335	     -0.93362146	    -89.71904343	      1.08270114	      0.98108188	      0.45429470	     25.51124544	     -8.39815702	    -37.13085906	    -21.45832215	      3.34277816	     -4.85996544	    -18.30179282	     -5.85396697	    -12.96426877	    -20.72707400	     -0.45777185	     18.92704672	     -2.79958685	     -0.27346624	     -9.09834156
      6.23000000	      1.99507960	     -0.63689582	    -90.47326140	      1.07604799	      0.98253528	      0.46581414	     25.60016662	     -7.41293498	    -36.06365712	    -22.05703453	      3.56475696	     -5.43141009	    -17.48286850	     -6.63374190	    -13.24472292	    -22.55371310	     -2.67335053	     19.08697883	     -2.23632577	      0.19258611	     -8.74513438
      6.24000000	      1.59299681	     -0.36679714	    -91.21131585	      1.06939679	      0.98396027	      0.47718686	     25.61918643	     -6.45067467	    -35.12893818	    -22.64152040	      3.66892148	     -5.97854990	    -16.59630459	     -7.41726126	    -13.32669314	    -24.45494344	     -5.22215720	     18.78092681	     -1.72883393	      0.66179566	     -8.45148040
      6.25000000	      1.28849607	     -0.17330707	    -91.95828018	      1.06290837	      0.98542001	      0.48826711	     25.53378008	     -5.59006977	    -34.18940918	    -23.15412647	      3.73663994	     -6.45480913	    -15.72034071	     -8.06858814	    -13.21027124	    -26.35283302	     -7.96624708	     18.36091066	     -1.35646372	      1.04359955	     -8.18223191
      6.26000000	      1.10641607	     -0.04453239	    -92.69774837	      1.05662348	      0.98684451	      0.49901356	     25.37211595	     -4.91108306	    -33.36243983	    -23.66396925	      3.80460923	     -6.70862689	    -14.78657611	     -8.55760017	    -12.88181054	    -28.37646653	    -10.64664154	     18.04921003	     -1.10280482	      1.30709469	     -7.95966080
      6.27000000	      0.95019489	      0.04126083	    -93.45563990	      1.05022857	      0.98817451	      0.50939628	     25.13798049	     -4.25260743	    -32.60432582	    -24.11153750	      4.01392262	     -6.77893270	    -13.69776392	     -9.04528524	    -12.60297451	    -30.75067300	    -12.97565798	     17.75523795	     -0.94145507	      1.51986457	     -7.74593245
      6.28000000	      0.76437285	      0.05917962	    -94.20997333	      1.04368626	      0.98950289	      0.51942785	     24.77411883	     -3.51157319	    -31.83553317	    -24.41049660	      4.29278707	     -6.89310684	    -12.49126110	     -9.66600875	    -12.60207958	    -33.50027308	    -14.59133962	     17.80926122	     -0.90385915	      1.73063224	     -7.58017273
      6.29000000	      0.50524575	      0.04227844	    -94.91312899	      1.03707701	      0.99072116	      0.52916375	     24.29340745	     -2.68475842	    -31.16258617	    -24.57178194	      4.59050130	     -7.09356283	    -11.17671970	    -10.42459099	    -12.60109747	    -36.48864067	    -15.56890031	     18.17105208	     -0.94699131	      1.99114911	     -7.48432283
      6.30000000	      0.28039557	     -0.03529690	    -95.52212161	      1.03069807	      0.99190594	      0.53861308	     23.71118840	     -1.97226616	    -30.70168789	    -24.71036733	      4.97715066	     -7.34028155	     -9.84549323	    -10.99684507	    -12.05178324	    -39.35816134	    -16.36754156	     18.02247611	     -1.09559043	      2.20141497	     -7.47370134
      6.31000000	      0.26693588	     -0.13502195	    -96.04657963	      1.02484382	      0.99307545	      0.54773743	     23.14700501	     -1.55786572	    -30.31260609	    -24.88794091	      5.41601988	     -7.68240629	     -8.47514105	    -11.03033536	    -10.74111237	    -41.90420739	    -16.75150933	     16.87503298	     -1.28336120	      2.19825481	     -7.50519638
      6.32000000	      0.38865071	     -0.26653097	    -96.47426785	      1.01956290	      0.99428594	      0.55660605	     22.56469574	     -1.34225543	    -29.95310845	    -25.04817689	      5.82441839	     -7.94599871	     -7.04097435	    -10.66449305	     -8.89050040	    -44.28312880	    -16.06001511	     16.42338130	     -1.50933413	      2.07220445	     -7.61504846
      6.33000000	      0.55799830	     -0.33367083	    -96.91614747	      1.01442204	      0.99532008	      0.56516430	     22.05028467	     -1.15380458	    -29.55066618	    -25.14920800	      6.19665411	     -8.24504175	     -5.46742726	    -10.17779120	     -7.11747084	    -46.59948697	    -14.50749394	     16.75897558	     -1.67196821	      1.89739953	     -7.68311984
      6.34000000	      0.68732754	     -0.36418598	    -97.41954163	      1.00915669	      0.99629341	      0.57345406	     21.54954607	     -0.89500720	    -29.15819433	    -25.18391789	      6.51209893	     -8.53920658	     -3.85910741	     -9.73161011	     -5.64468175	    -48.76306734	    -12.93601780	     17.34506894	     -1.80739081	      1.74341693	     -7.65344461
      6.35000000	      0.76447547	     -0.39958455	    -98.00427628	      1.00374908	      0.99733972	      0.58160687	     21.00737825	     -0.54771868	    -28.70535256	    -25.14638816	      6.81978358	     -8.77539170	     -2.31264921	     -9.32684886	     -4.45836726	    -50.70151003	    -11.84922853	     17.61549070	     -1.95072960	      1.62075406	     -7.49223999
      6.36000000	      0.80826169	     -0.42940011	    -98.67450224	      0.99817677	      0.99839958	      0.58949372	     20.46299061	     -0.12800499	    -28.14897573	    -25.06752245	      7.15024872	     -8.89661927	     -0.78089495	     -8.96678651	     -3.52838027	    -52.47701638	    -10.85271216	     18.05270293	     -2.08535559	      1.52478628	     -7.25078531
      6.37000000	      0.81981926	     -0.50306976	    -99.43112871	      0.99237416	      0.99944359	      0.59694696	     19.87239637	      0.34925061	    -27.52553593	    -24.95484003	      7.50402148	     -8.93122389	      0.69254688	     -8.67696672	     -2.84410411	    -54.09715164	     -9.67492236	     18.92717770	     -2.25345686	      1.47617578	     -7.02610844
      6.38000000	      0.78275100	     -0.65263780	   -100.27333854	      0.98626136	      1.00047310	      0.60409322	     19.18722312	      0.89354989	    -26.83140899	    -24.81035045	      7.83494246	     -8.96955314	      2.04058064	     -8.49881782	     -2.41693219	    -55.52319329	     -8.48344243	     19.65229087	     -2.48256513	      1.47347826	     -6.85071591
      6.39000000	      0.75283761	     -0.79259985	   -101.20093599	      0.97983625	      1.00152215	      0.61140651	     18.44197487	      1.45828043	    -26.09540649	    -24.56942603	      8.16481672	     -8.99707329	      3.28088919	     -8.33654414	     -2.11509059	    -56.64224087	     -7.29734358	     20.17092644	     -2.65518231	      1.38395411	     -6.49296037
      6.40000000	      0.70713019	     -0.89208443	   -102.28409305	      0.97312473	      1.00259429	      0.61880239	     17.69392675	      2.09165439	    -25.16393152	    -24.26541232	      8.42162615	     -8.98158720	      4.43731590	     -8.22796374	     -2.01312530	    -57.47831352	     -6.11119089	     20.25411942	     -2.75975248	      1.24825144	     -5.89277925
      6.41000000	      0.64474107	     -1.02422799	   -103.43624293	      0.96645277	      1.00381910	      0.62602115	     16.88916653	      2.74441866	    -24.09232607	    -23.91665741	      8.61448361	     -8.94360493	      5.49431647	     -8.13808973	     -1.99139375	    -58.07586782	     -4.93339915	     20.09992404	     -2.89079232	      1.12155266	     -5.25077351
      6.42000000	      0.56454342	     -1.17258333	   -104.63214844	      0.95960974	      1.00495489	      0.63280911	     16.06084164	      3.40764007	    -23.02996614	    -23.55206921	      8.79221226	     -8.96571741	      6.52735184	     -8.11992609	     -2.04402330	    -58.52042381	     -3.70352586	     19.86121139	     -3.05014700	      1.01693716	     -4.69936153
      6.43000000	      0.49572198	     -1.27804971	   -105.88983791	      0.95241090	      1.00584014	      0.63918284	     15.26843292	      4.06784946	    -22.01994471	    -23.16544736	      8.95139820	     -9.05898583	      7.59319910	     -8.16668071	     -2.18837140	    -58.79723928	     -2.46696955	     19.46756232	     -3.16066579	      0.90109820	     -4.20866362
      6.44000000	      0.44649522	     -1.34481007	   -107.18078731	      0.94517187	      1.00663095	      0.64534696	     14.51613512	      4.70030471	    -20.93541961	    -22.78254301	      9.06751486	     -9.15504516	      8.64986143	     -8.21084977	     -2.35219965	    -58.85092025	     -1.30500385	     18.67085739	     -3.22954255	      0.76570073	     -3.69716553
      6.45000000	      0.43841197	     -1.34290693	   -108.54927231	      0.93779048	      1.00722348	      0.65119705	     13.83230647	      5.29959723	    -19.84236711	    -22.38163212	      9.17762348	     -9.27251273	      9.72790461	     -8.26902817	     -2.56251228	    -58.69087485	     -0.04081853	     18.05661237	     -3.23335558	      0.57575070	     -3.06829672
      6.46000000	      0.45901932	     -1.32176956	   -109.94604842	      0.93035509	      1.00764624	      0.65678402	     13.16089799	      5.84625667	    -18.82788231	    -21.96636425	      9.29059321	     -9.45595000	     10.78892403	     -8.34015447	     -2.81034196	    -58.34373101	      1.14280757	     17.02649528	     -3.21331553	      0.35075548	     -2.41592672
      6.47000000	      0.43265749	     -1.38331879	   -111.29009206	      0.92306156	      1.00822255	      0.66240204	     12.38275319	      6.38047066	    -17.68404778	    -21.57367265	      9.40291618	     -9.54123833	     11.70272481	     -8.43007346	     -3.01783284	    -57.79441643	      2.12265323	     15.77177501	     -3.27488012	      0.16982794	     -1.86146639
